# xmcd CD database file
#
# Track frame offsets:
#	150
#	18659
#	39816
#	58964
#	85388
#	105143
#	130680
#	148569
#	175968
#	195393
#	214272
#	236198
#	257491
#	284171
#	312185
#	332857
#	351435
#
# Disc length: 4857 seconds
#
# Revision: 0
# Processed by: cddbd v1.5.1PL0 Copyright (c) Steve Scherf et al.
# Submitted via: CDex 1.51
#
DISCID=0112f711
DTITLE=Vari - Salsa Nuestra 9
DYEAR=2005
DGENRE=Salsa
TTITLE0=Ismael Miranda Feat.Cheka and An - Se Fue Y Me Dejó - LMP
TTITLE1=Charanga Habanera - Esta Es Mi Charanga
TTITLE2=N'Klabe - I Love Salsa
TTITLE3=Antonio Da Costa RMX Silvio Si - Il ginecologo del ritmo
TTITLE4=Frankie Negron - Lento
TTITLE5=Pupy Y Los Que Son Son - La Borrachera
TTITLE6=Charlie Cruz - Ven Devorame Otra Vez
TTITLE7=Los Van Van - Despues De Todo
TTITLE8=Victor Manuelle feat. Hector y - Ay Amor
TTITLE9=Ricardo Leyva y sur Caribe - Por y para Maria
TTITLE10=Massimo Scalici Y Orquesta Sic - You
TTITLE11=M Enriquez-s - Sacala Sacala
TTITLE12=Croma Latina - Llego
TTITLE13=La 33 - La Pantera Mambo
TTITLE14=Bimbo G - Tu No Me Quieres Pa Na
TTITLE15=G2m exclusivo por alexio - Curame
TTITLE16=Maestro de Rumberos - Maestro de Rumberos
EXTD=YEAR: 2005
EXTT0=
EXTT1=
EXTT2=
EXTT3=
EXTT4=
EXTT5=
EXTT6=
EXTT7=
EXTT8=
EXTT9=
EXTT10=
EXTT11=
EXTT12=
EXTT13=
EXTT14=
EXTT15=
EXTT16=
PLAYORDER=
